<svg xmlns="http://www.w3.org/2000/svg" viewBox="0 0 200 200">
    <style>
        @media (prefers-color-scheme: light) {
        .a { fill: #000000 }
        }
    </style>
<path class="a" fill="#ffffff" fill-rule="evenodd" clip-rule="evenodd" d="M127.397 3.05536C131.471 -1.01847 138.077 -1.01839 142.151 3.05536L196.945 57.8493C201.018 61.9233 201.018 68.529 196.945 72.603L169.547 99.9995L196.945 127.397C201.018 131.471 201.018 138.077 196.945 142.151L142.151 196.945C138.077 201.018 131.471 201.018 127.397 196.945L99.9994 169.547L72.603 196.945C68.529 201.018 61.9233 201.019 57.8493 196.945L3.05536 142.151C-1.01837 138.077 -1.01841 131.471 3.05536 127.397L30.4518 99.9995L3.05536 72.603C-1.01837 68.529 -1.01854 61.9232 3.05536 57.8493L57.8493 3.05536C61.9232 -1.01854 68.529 -1.01837 72.603 3.05536L99.9994 30.4518L127.397 3.05536ZM99.9353 50.7577C72.7754 50.7577 50.7577 72.7754 50.7577 99.9353C50.7578 127.095 72.7754 149.113 99.9353 149.113C127.095 149.113 149.113 127.095 149.113 99.9353C149.113 72.7755 127.095 50.7579 99.9353 50.7577Z"/>
<path class="a" fill="#ffffff" d="M99.9349 75.3463C102.456 75.3463 104.889 75.7262 107.179 76.4313C102.909 78.3583 99.9349 82.651 99.9349 87.6407C99.935 94.4306 105.439 99.935 112.229 99.935C117.219 99.935 121.511 96.9606 123.438 92.6896C124.143 94.9801 124.524 97.4132 124.524 99.935C124.524 113.515 113.515 124.524 99.9349 124.524C86.355 124.524 75.3462 113.515 75.3462 99.935C75.3462 86.3551 86.355 75.3463 99.9349 75.3463Z"/>
</svg>